<svg width="22" height="13" viewBox="0 0 22 13" fill="none" xmlns="http://www.w3.org/2000/svg">
<path d="M11 2.69608C9.17744 2.69608 7.7 4.38585 7.7 6.47059C7.7 8.55499 9.17744 10.2451 11 10.2451C12.8219 10.2451 14.3 8.55567 14.3 6.47059C14.3 4.38585 12.8226 2.69608 11 2.69608ZM12.375 8.35784C12.375 8.5068 12.2519 8.62745 12.1 8.62745H9.9C9.74806 8.62745 9.625 8.5068 9.625 8.35784V7.81863C9.625 7.66967 9.74806 7.54902 9.9 7.54902H10.45V5.68064L10.4338 5.69108C10.4038 5.71074 10.3701 5.72439 10.3347 5.73127C10.2993 5.73814 10.2628 5.7381 10.2274 5.73116C10.192 5.72421 10.1583 5.71048 10.1284 5.69077C10.0984 5.67106 10.0726 5.64574 10.0526 5.61627L9.74738 5.16771C9.72733 5.13826 9.7134 5.10523 9.70639 5.07051C9.69938 5.03578 9.69942 5.00004 9.7065 4.96533C9.71359 4.93061 9.72759 4.89761 9.7477 4.86821C9.7678 4.83881 9.79363 4.81358 9.82369 4.79396L10.3507 4.44954C10.4861 4.36097 10.6453 4.31372 10.8082 4.31373H11.275C11.4269 4.31373 11.55 4.43437 11.55 4.58333V7.54902H12.1C12.2519 7.54902 12.375 7.66967 12.375 7.81863V8.35784ZM20.9 0H1.1C0.492594 0 0 0.482935 0 1.07843V11.8627C0 12.4582 0.492594 12.9412 1.1 12.9412H20.9C21.5074 12.9412 22 12.4582 22 11.8627V1.07843C22 0.482935 21.5074 0 20.9 0ZM20.35 9.16667C19.1348 9.16667 18.15 10.1322 18.15 11.3235H3.85C3.85 10.1322 2.86516 9.16667 1.65 9.16667V3.77451C2.86516 3.77451 3.85 2.80898 3.85 1.61765H18.15C18.15 2.80898 19.1348 3.77451 20.35 3.77451V9.16667Z" fill="#0E00AB"/>
</svg>
