<svg width="22" height="17" viewBox="0 0 22 17" fill="none" xmlns="http://www.w3.org/2000/svg">
<path d="M19.25 2.75V0H0V15.125C0 15.4897 0.144866 15.8394 0.402728 16.0973C0.660591 16.3551 1.01033 16.5 1.375 16.5H19.9375C20.4845 16.5 21.0091 16.2827 21.3959 15.8959C21.7827 15.5091 22 14.9845 22 14.4375V2.75H19.25ZM17.875 15.125H1.375V1.375H17.875V15.125ZM2.75 4.125H16.5V5.5H2.75V4.125ZM11 6.875H16.5V8.25H11V6.875ZM11 9.625H16.5V11H11V9.625ZM11 12.375H15.125V13.75H11V12.375ZM2.75 6.875H9.625V13.75H2.75V6.875Z" fill="#0E00AB"/>
</svg>
