<svg width="22" height="24" viewBox="0 0 22 24" fill="none" xmlns="http://www.w3.org/2000/svg">
<path d="M19.6429 7.85714H14.1429V2.35714C14.1429 1.73199 13.8945 1.13244 13.4525 0.690391C13.0104 0.248341 12.4109 0 11.7857 0H2.35714C1.73199 0 1.13244 0.248341 0.690391 0.690391C0.248341 1.13244 0 1.73199 0 2.35714V22.7857C0 22.9941 0.0827803 23.1939 0.23013 23.3413C0.37748 23.4886 0.57733 23.5714 0.785714 23.5714H5.89286C5.99705 23.5714 6.09697 23.53 6.17065 23.4564C6.24432 23.3827 6.28571 23.2828 6.28571 23.1786V19.665C6.28571 19.2421 6.6108 18.8792 7.03362 18.8581C7.13985 18.853 7.24602 18.8695 7.34569 18.9066C7.44536 18.9438 7.53645 19.0007 7.61345 19.0741C7.69045 19.1475 7.75175 19.2357 7.79364 19.3335C7.83553 19.4312 7.85713 19.5365 7.85714 19.6429V23.1786C7.85714 23.2828 7.89853 23.3827 7.97221 23.4564C8.04588 23.53 8.14581 23.5714 8.25 23.5714H21.2143C21.4227 23.5714 21.6225 23.4886 21.7699 23.3413C21.9172 23.1939 22 22.9941 22 22.7857V10.2143C22 9.58913 21.7517 8.98958 21.3096 8.54753C20.8676 8.10548 20.268 7.85714 19.6429 7.85714ZM3.245 20.4222C3.08227 20.4435 2.91697 20.4133 2.77228 20.3358C2.6276 20.2584 2.5108 20.1375 2.43827 19.9903C2.36575 19.8431 2.34115 19.6769 2.36792 19.515C2.39468 19.353 2.47148 19.2036 2.58752 19.0875C2.70357 18.9715 2.85304 18.8947 3.01495 18.8679C3.17687 18.8411 3.3431 18.8658 3.49032 18.9383C3.63754 19.0108 3.75835 19.1276 3.83581 19.2723C3.91326 19.417 3.94347 19.5823 3.92219 19.745C3.89973 19.9167 3.82116 20.0762 3.69869 20.1987C3.57623 20.3212 3.41673 20.3997 3.245 20.4222ZM3.245 16.4936C3.08227 16.5149 2.91697 16.4847 2.77228 16.4072C2.6276 16.3298 2.5108 16.209 2.43827 16.0617C2.36575 15.9145 2.34115 15.7483 2.36792 15.5864C2.39468 15.4245 2.47148 15.275 2.58752 15.159C2.70357 15.0429 2.85304 14.9661 3.01495 14.9393C3.17687 14.9126 3.3431 14.9372 3.49032 15.0097C3.63754 15.0822 3.75835 15.199 3.83581 15.3437C3.91326 15.4884 3.94347 15.6537 3.92219 15.8164C3.89973 15.9882 3.82116 16.1477 3.69869 16.2701C3.57623 16.3926 3.41673 16.4712 3.245 16.4936ZM3.245 12.565C3.08227 12.5863 2.91697 12.5561 2.77228 12.4787C2.6276 12.4012 2.5108 12.2804 2.43827 12.1332C2.36575 11.986 2.34115 11.8197 2.36792 11.6578C2.39468 11.4959 2.47148 11.3464 2.58752 11.2304C2.70357 11.1143 2.85304 11.0375 3.01495 11.0108C3.17687 10.984 3.3431 11.0086 3.49032 11.0811C3.63754 11.1537 3.75835 11.2705 3.83581 11.4151C3.91326 11.5598 3.94347 11.7251 3.92219 11.8879C3.89973 12.0596 3.82116 12.2191 3.69869 12.3415C3.57623 12.464 3.41673 12.5426 3.245 12.565ZM3.245 8.63647C3.08227 8.65775 2.91697 8.62755 2.77228 8.55009C2.6276 8.47264 2.5108 8.35182 2.43827 8.20461C2.36575 8.05739 2.34115 7.89115 2.36792 7.72924C2.39468 7.56732 2.47148 7.41786 2.58752 7.30181C2.70357 7.18576 2.85304 7.10897 3.01495 7.0822C3.17687 7.05543 3.3431 7.08004 3.49032 7.15256C3.63754 7.22508 3.75835 7.34188 3.83581 7.48657C3.91326 7.63125 3.94347 7.79656 3.92219 7.95929C3.89973 8.13101 3.82116 8.29051 3.69869 8.41298C3.57623 8.53544 3.41673 8.61401 3.245 8.63647ZM3.245 4.7079C3.08227 4.72918 2.91697 4.69898 2.77228 4.62152C2.6276 4.54407 2.5108 4.42325 2.43827 4.27603C2.36575 4.12882 2.34115 3.96258 2.36792 3.80067C2.39468 3.63875 2.47148 3.48928 2.58752 3.37324C2.70357 3.25719 2.85304 3.1804 3.01495 3.15363C3.17687 3.12686 3.3431 3.15147 3.49032 3.22399C3.63754 3.29651 3.75835 3.41331 3.83581 3.558C3.91326 3.70268 3.94347 3.86799 3.92219 4.03071C3.89973 4.20244 3.82116 4.36194 3.69869 4.48441C3.57623 4.60687 3.41673 4.68544 3.245 4.7079ZM7.17357 16.4936C7.01084 16.5149 6.84554 16.4847 6.70085 16.4072C6.55617 16.3298 6.43937 16.209 6.36685 16.0617C6.29432 15.9145 6.26972 15.7483 6.29649 15.5864C6.32325 15.4245 6.40005 15.275 6.5161 15.159C6.63214 15.0429 6.78161 14.9661 6.94352 14.9393C7.10544 14.9126 7.27167 14.9372 7.41889 15.0097C7.56611 15.0822 7.68693 15.199 7.76438 15.3437C7.84183 15.4884 7.87204 15.6537 7.85076 15.8164C7.8283 15.9882 7.74973 16.1477 7.62726 16.2701C7.5048 16.3926 7.3453 16.4712 7.17357 16.4936ZM7.17357 12.565C7.01084 12.5863 6.84554 12.5561 6.70085 12.4787C6.55617 12.4012 6.43937 12.2804 6.36685 12.1332C6.29432 11.986 6.26972 11.8197 6.29649 11.6578C6.32325 11.4959 6.40005 11.3464 6.5161 11.2304C6.63214 11.1143 6.78161 11.0375 6.94352 11.0108C7.10544 10.984 7.27167 11.0086 7.41889 11.0811C7.56611 11.1537 7.68693 11.2705 7.76438 11.4151C7.84183 11.5598 7.87204 11.7251 7.85076 11.8879C7.8283 12.0596 7.74973 12.2191 7.62726 12.3415C7.5048 12.464 7.3453 12.5426 7.17357 12.565ZM7.17357 8.63647C7.01084 8.65775 6.84554 8.62755 6.70085 8.55009C6.55617 8.47264 6.43937 8.35182 6.36685 8.20461C6.29432 8.05739 6.26972 7.89115 6.29649 7.72924C6.32325 7.56732 6.40005 7.41786 6.5161 7.30181C6.63214 7.18576 6.78161 7.10897 6.94352 7.0822C7.10544 7.05543 7.27167 7.08004 7.41889 7.15256C7.56611 7.22508 7.68693 7.34188 7.76438 7.48657C7.84183 7.63125 7.87204 7.79656 7.85076 7.95929C7.8283 8.13101 7.74973 8.29051 7.62726 8.41298C7.5048 8.53544 7.3453 8.61401 7.17357 8.63647ZM7.17357 4.7079C7.01084 4.72918 6.84554 4.69898 6.70085 4.62152C6.55617 4.54407 6.43937 4.42325 6.36685 4.27603C6.29432 4.12882 6.26972 3.96258 6.29649 3.80067C6.32325 3.63875 6.40005 3.48928 6.5161 3.37324C6.63214 3.25719 6.78161 3.1804 6.94352 3.15363C7.10544 3.12686 7.27167 3.15147 7.41889 3.22399C7.56611 3.29651 7.68693 3.41331 7.76438 3.558C7.84183 3.70268 7.87204 3.86799 7.85076 4.03071C7.8283 4.20244 7.74973 4.36194 7.62726 4.48441C7.5048 4.60687 7.3453 4.68544 7.17357 4.7079ZM11.1021 20.4222C10.9394 20.4435 10.7741 20.4133 10.6294 20.3358C10.4847 20.2584 10.3679 20.1375 10.2954 19.9903C10.2229 19.8431 10.1983 19.6769 10.2251 19.515C10.2518 19.353 10.3286 19.2036 10.4447 19.0875C10.5607 18.9715 10.7102 18.8947 10.8721 18.8679C11.034 18.8411 11.2002 18.8658 11.3475 18.9383C11.4947 19.0108 11.6155 19.1276 11.693 19.2723C11.7704 19.417 11.8006 19.5823 11.7793 19.745C11.7569 19.9167 11.6783 20.0762 11.5558 20.1987C11.4334 20.3212 11.2739 20.3997 11.1021 20.4222ZM11.1021 16.4936C10.9394 16.5149 10.7741 16.4847 10.6294 16.4072C10.4847 16.3298 10.3679 16.209 10.2954 16.0617C10.2229 15.9145 10.1983 15.7483 10.2251 15.5864C10.2518 15.4245 10.3286 15.275 10.4447 15.159C10.5607 15.0429 10.7102 14.9661 10.8721 14.9393C11.034 14.9126 11.2002 14.9372 11.3475 15.0097C11.4947 15.0822 11.6155 15.199 11.693 15.3437C11.7704 15.4884 11.8006 15.6537 11.7793 15.8164C11.7569 15.9882 11.6783 16.1477 11.5558 16.2701C11.4334 16.3926 11.2739 16.4712 11.1021 16.4936ZM11.1021 12.565C10.9394 12.5863 10.7741 12.5561 10.6294 12.4787C10.4847 12.4012 10.3679 12.2804 10.2954 12.1332C10.2229 11.986 10.1983 11.8197 10.2251 11.6578C10.2518 11.4959 10.3286 11.3464 10.4447 11.2304C10.5607 11.1143 10.7102 11.0375 10.8721 11.0108C11.034 10.984 11.2002 11.0086 11.3475 11.0811C11.4947 11.1537 11.6155 11.2705 11.693 11.4151C11.7704 11.5598 11.8006 11.7251 11.7793 11.8879C11.7569 12.0596 11.6783 12.2191 11.5558 12.3415C11.4334 12.464 11.2739 12.5426 11.1021 12.565ZM11.1021 8.63647C10.9394 8.65775 10.7741 8.62755 10.6294 8.55009C10.4847 8.47264 10.3679 8.35182 10.2954 8.20461C10.2229 8.05739 10.1983 7.89115 10.2251 7.72924C10.2518 7.56732 10.3286 7.41786 10.4447 7.30181C10.5607 7.18576 10.7102 7.10897 10.8721 7.0822C11.034 7.05543 11.2002 7.08004 11.3475 7.15256C11.4947 7.22508 11.6155 7.34188 11.693 7.48657C11.7704 7.63125 11.8006 7.79656 11.7793 7.95929C11.7569 8.13101 11.6783 8.29051 11.5558 8.41298C11.4334 8.53544 11.2739 8.61401 11.1021 8.63647ZM11.1021 4.7079C10.9394 4.72918 10.7741 4.69898 10.6294 4.62152C10.4847 4.54407 10.3679 4.42325 10.2954 4.27603C10.2229 4.12882 10.1983 3.96258 10.2251 3.80067C10.2518 3.63875 10.3286 3.48928 10.4447 3.37324C10.5607 3.25719 10.7102 3.1804 10.8721 3.15363C11.034 3.12686 11.2002 3.15147 11.3475 3.22399C11.4947 3.29651 11.6155 3.41331 11.693 3.558C11.7704 3.70268 11.8006 3.86799 11.7793 4.03071C11.7569 4.20244 11.6783 4.36194 11.5558 4.48441C11.4334 4.60687 11.2739 4.68544 11.1021 4.7079ZM20.2321 22H14.1429V9.42857H19.6429C19.8512 9.42857 20.0511 9.51135 20.1984 9.6587C20.3458 9.80605 20.4286 10.0059 20.4286 10.2143V21.8036C20.4286 21.8557 20.4079 21.9056 20.371 21.9425C20.3342 21.9793 20.2842 22 20.2321 22Z" fill="#0E00AB"/>
<path d="M18.0714 18.8571C17.916 18.8571 17.7641 18.9032 17.6349 18.9896C17.5057 19.0759 17.405 19.1986 17.3455 19.3422C17.2861 19.4857 17.2705 19.6437 17.3008 19.7961C17.3311 19.9486 17.406 20.0886 17.5158 20.1984C17.6257 20.3083 17.7657 20.3832 17.9181 20.4135C18.0706 20.4438 18.2285 20.4282 18.3721 20.3688C18.5157 20.3093 18.6384 20.2086 18.7247 20.0794C18.8111 19.9502 18.8571 19.7983 18.8571 19.6429C18.8571 19.4345 18.7744 19.2346 18.627 19.0873C18.4797 18.9399 18.2798 18.8571 18.0714 18.8571Z" fill="#0E00AB"/>
<path d="M18.0714 14.9286C17.916 14.9286 17.7641 14.9747 17.6349 15.061C17.5057 15.1473 17.405 15.27 17.3455 15.4136C17.2861 15.5572 17.2705 15.7152 17.3008 15.8676C17.3311 16.02 17.406 16.16 17.5158 16.2699C17.6257 16.3798 17.7657 16.4546 17.9181 16.4849C18.0706 16.5152 18.2285 16.4997 18.3721 16.4402C18.5157 16.3807 18.6384 16.28 18.7247 16.1508C18.8111 16.0216 18.8571 15.8697 18.8571 15.7143C18.8571 15.5059 18.7744 15.3061 18.627 15.1587C18.4797 15.0114 18.2798 14.9286 18.0714 14.9286Z" fill="#0E00AB"/>
<path d="M18.0714 11C17.916 11 17.7641 11.0461 17.6349 11.1324C17.5057 11.2188 17.405 11.3415 17.3455 11.485C17.2861 11.6286 17.2705 11.7866 17.3008 11.939C17.3311 12.0914 17.406 12.2314 17.5158 12.3413C17.6257 12.4512 17.7657 12.526 17.9181 12.5563C18.0706 12.5866 18.2285 12.5711 18.3721 12.5116C18.5157 12.4522 18.6384 12.3514 18.7247 12.2222C18.8111 12.093 18.8571 11.9411 18.8571 11.7857C18.8571 11.5773 18.7744 11.3775 18.627 11.2301C18.4797 11.0828 18.2798 11 18.0714 11Z" fill="#0E00AB"/>
<path d="M14.9286 18.8571C14.7732 18.8571 14.6213 18.9032 14.4921 18.9896C14.3628 19.0759 14.2621 19.1986 14.2027 19.3422C14.1432 19.4857 14.1276 19.6437 14.158 19.7961C14.1883 19.9486 14.2631 20.0886 14.373 20.1984C14.4829 20.3083 14.6229 20.3832 14.7753 20.4135C14.9277 20.4438 15.0857 20.4282 15.2293 20.3688C15.3728 20.3093 15.4955 20.2086 15.5819 20.0794C15.6682 19.9502 15.7143 19.7983 15.7143 19.6429C15.7143 19.4345 15.6315 19.2346 15.4842 19.0873C15.3368 18.9399 15.137 18.8571 14.9286 18.8571Z" fill="#0E00AB"/>
<path d="M14.9286 14.9286C14.7732 14.9286 14.6213 14.9747 14.4921 15.061C14.3628 15.1473 14.2621 15.27 14.2027 15.4136C14.1432 15.5572 14.1276 15.7152 14.158 15.8676C14.1883 16.02 14.2631 16.16 14.373 16.2699C14.4829 16.3798 14.6229 16.4546 14.7753 16.4849C14.9277 16.5152 15.0857 16.4997 15.2293 16.4402C15.3728 16.3807 15.4955 16.28 15.5819 16.1508C15.6682 16.0216 15.7143 15.8697 15.7143 15.7143C15.7143 15.5059 15.6315 15.3061 15.4842 15.1587C15.3368 15.0114 15.137 14.9286 14.9286 14.9286Z" fill="#0E00AB"/>
<path d="M14.9286 11C14.7732 11 14.6213 11.0461 14.4921 11.1324C14.3628 11.2188 14.2621 11.3415 14.2027 11.485C14.1432 11.6286 14.1276 11.7866 14.158 11.939C14.1883 12.0914 14.2631 12.2314 14.373 12.3413C14.4829 12.4512 14.6229 12.526 14.7753 12.5563C14.9277 12.5866 15.0857 12.5711 15.2293 12.5116C15.3728 12.4522 15.4955 12.3514 15.5819 12.2222C15.6682 12.093 15.7143 11.9411 15.7143 11.7857C15.7143 11.5773 15.6315 11.3775 15.4842 11.2301C15.3368 11.0828 15.137 11 14.9286 11Z" fill="#0E00AB"/>
</svg>
